<svg width="26" height="27" viewBox="0 0 26 27" fill="none" xmlns="http://www.w3.org/2000/svg">
<path d="M25.0435 12.4179V13.0942C25.0435 13.6545 24.5893 14.1087 24.029 14.1087H23.6908L22.587 21.8352C22.4442 22.8348 21.5882 23.5773 20.5785 23.5773H5.16071C4.151 23.5773 3.29494 22.8348 3.1521 21.8352L2.04834 14.1087H1.71017C1.14988 14.1087 0.695679 13.6545 0.695679 13.0942V12.4179C0.695679 11.8576 1.14988 11.4034 1.71017 11.4034H4.55671L9.07036 5.19716C9.50976 4.59303 10.3557 4.45941 10.9599 4.89881C11.5641 5.33821 11.6976 6.18417 11.2582 6.78835L7.90183 11.4034H17.8373L14.4809 6.7883C14.0415 6.18417 14.1752 5.33817 14.7793 4.89877C15.3834 4.45937 16.2295 4.59294 16.6689 5.19711L21.1825 11.4034H24.029C24.5893 11.4034 25.0435 11.8576 25.0435 12.4179ZM13.8841 19.8575V15.1232C13.8841 14.5629 13.4299 14.1087 12.8696 14.1087C12.3093 14.1087 11.8551 14.5629 11.8551 15.1232V19.8575C11.8551 20.4178 12.3093 20.872 12.8696 20.872C13.4299 20.872 13.8841 20.4178 13.8841 19.8575ZM18.6184 19.8575V15.1232C18.6184 14.5629 18.1642 14.1087 17.6039 14.1087C17.0436 14.1087 16.5894 14.5629 16.5894 15.1232V19.8575C16.5894 20.4178 17.0436 20.872 17.6039 20.872C18.1642 20.872 18.6184 20.4178 18.6184 19.8575ZM9.14978 19.8575V15.1232C9.14978 14.5629 8.69559 14.1087 8.13529 14.1087C7.575 14.1087 7.1208 14.5629 7.1208 15.1232V19.8575C7.1208 20.4178 7.575 20.872 8.13529 20.872C8.69559 20.872 9.14978 20.4178 9.14978 19.8575Z" fill="#292929"/>
</svg>
