<svg width="25" height="27" viewBox="0 0 25 27" fill="none" xmlns="http://www.w3.org/2000/svg">
<path d="M23.7391 17.7609H23.1304V13.6484C23.1304 13.1652 22.9364 12.7011 22.594 12.3587L18.7935 8.55818C18.4511 8.21579 17.987 8.02177 17.5038 8.02177H15.8261V6.19569C15.8261 5.18753 15.0082 4.3696 14 4.3696H1.82609C0.817935 4.3696 0 5.18753 0 6.19569V18.3696C0 19.3777 0.817935 20.1957 1.82609 20.1957H2.43478C2.43478 22.212 4.07065 23.8479 6.08696 23.8479C8.10326 23.8479 9.73913 22.212 9.73913 20.1957H14.6087C14.6087 22.212 16.2446 23.8479 18.2609 23.8479C20.2772 23.8479 21.913 22.212 21.913 20.1957H23.7391C24.0739 20.1957 24.3478 19.9218 24.3478 19.587V18.3696C24.3478 18.0348 24.0739 17.7609 23.7391 17.7609ZM6.08696 22.0218C5.0788 22.0218 4.26087 21.2038 4.26087 20.1957C4.26087 19.1875 5.0788 18.3696 6.08696 18.3696C7.09511 18.3696 7.91304 19.1875 7.91304 20.1957C7.91304 21.2038 7.09511 22.0218 6.08696 22.0218ZM18.2609 22.0218C17.2527 22.0218 16.4348 21.2038 16.4348 20.1957C16.4348 19.1875 17.2527 18.3696 18.2609 18.3696C19.269 18.3696 20.087 19.1875 20.087 20.1957C20.087 21.2038 19.269 22.0218 18.2609 22.0218ZM21.3043 14.1087H15.8261V9.84786H17.5038L21.3043 13.6484V14.1087Z" fill="#292929"/>
</svg>
