<svg width="14" height="14" viewBox="0 0 14 14" fill="none" xmlns="http://www.w3.org/2000/svg">
<path d="M2.9729 9.0257C3.04937 9.10246 3.10797 9.19514 3.14451 9.29714C3.18106 9.39914 3.19466 9.50795 3.18434 9.6158C3.13244 10.115 3.03428 10.6082 2.89113 11.0892C3.91884 10.8513 4.54651 10.5757 4.83162 10.4313C4.99333 10.3494 5.17956 10.33 5.35468 10.3768C5.8566 10.5112 6.37408 10.5785 6.89367 10.5772C9.83755 10.5772 12.0506 8.50927 12.0506 6.15696C12.0506 3.80465 9.83755 1.73671 6.89367 1.73671C3.94978 1.73671 1.73671 3.80539 1.73671 6.15696C1.73671 7.23845 2.19126 8.24184 2.9729 9.0257ZM2.60971 11.9025C2.43515 11.9371 2.26004 11.9688 2.08443 11.9976C1.93709 12.0212 1.82511 11.8679 1.88331 11.7309C1.94855 11.5766 2.00851 11.42 2.06307 11.2616L2.06528 11.2542C2.24798 10.7238 2.3968 10.1138 2.45132 9.54582C1.54737 8.63967 1 7.45356 1 6.15696C1 3.30884 3.63889 1 6.89367 1C10.1484 1 12.7873 3.30884 12.7873 6.15696C12.7873 9.00507 10.1484 11.3139 6.89367 11.3139C6.3099 11.3152 5.72853 11.2394 5.16461 11.0885C4.78152 11.2822 3.95715 11.6351 2.60971 11.9025Z" fill="#0B0B0B" stroke="#0B0B0B" stroke-width="0.3"/>
<path d="M3.94678 4.31519C3.94678 4.2175 3.98559 4.12381 4.05467 4.05473C4.12375 3.98565 4.21744 3.94684 4.31513 3.94684H9.47209C9.56978 3.94684 9.66348 3.98565 9.73256 4.05473C9.80164 4.12381 9.84044 4.2175 9.84044 4.31519C9.84044 4.41289 9.80164 4.50658 9.73256 4.57566C9.66348 4.64474 9.56978 4.68355 9.47209 4.68355H4.31513C4.21744 4.68355 4.12375 4.64474 4.05467 4.57566C3.98559 4.50658 3.94678 4.41289 3.94678 4.31519ZM3.94678 6.15696C3.94678 6.05927 3.98559 5.96558 4.05467 5.8965C4.12375 5.82742 4.21744 5.78861 4.31513 5.78861H9.47209C9.56978 5.78861 9.66348 5.82742 9.73256 5.8965C9.80164 5.96558 9.84044 6.05927 9.84044 6.15696C9.84044 6.25466 9.80164 6.34835 9.73256 6.41743C9.66348 6.48651 9.56978 6.52532 9.47209 6.52532H4.31513C4.21744 6.52532 4.12375 6.48651 4.05467 6.41743C3.98559 6.34835 3.94678 6.25466 3.94678 6.15696ZM3.94678 7.99873C3.94678 7.90104 3.98559 7.80735 4.05467 7.73827C4.12375 7.66919 4.21744 7.63038 4.31513 7.63038H7.26196C7.35966 7.63038 7.45335 7.66919 7.52243 7.73827C7.59151 7.80735 7.63032 7.90104 7.63032 7.99873C7.63032 8.09643 7.59151 8.19012 7.52243 8.2592C7.45335 8.32828 7.35966 8.36709 7.26196 8.36709H4.31513C4.21744 8.36709 4.12375 8.32828 4.05467 8.2592C3.98559 8.19012 3.94678 8.09643 3.94678 7.99873Z" fill="#0B0B0B" stroke="#0B0B0B" stroke-width="0.3"/>
</svg>
