<svg width="23" height="23" viewBox="0 0 23 23" fill="none" xmlns="http://www.w3.org/2000/svg">
<path d="M20.2465 9.67437H19.5202V9.63695H11.4057V13.2434H16.5012C15.7578 15.3428 13.7603 16.8498 11.4057 16.8498C8.41826 16.8498 5.99609 14.4277 5.99609 11.4402C5.99609 8.45268 8.41826 6.03051 11.4057 6.03051C12.7848 6.03051 14.0393 6.55074 14.9946 7.40051L17.5448 4.8503C15.9345 3.34957 13.7806 2.42407 11.4057 2.42407C6.42661 2.42407 2.38965 6.46103 2.38965 11.4402C2.38965 16.4193 6.42661 20.4563 11.4057 20.4563C16.3849 20.4563 20.4218 16.4193 20.4218 11.4402C20.4218 10.8356 20.3596 10.2455 20.2465 9.67437Z" fill="#FFC107"/>
<path d="M3.42896 7.24363L6.39119 9.41605C7.19272 7.43161 9.13389 6.03051 11.4055 6.03051C12.7845 6.03051 14.0391 6.55074 14.9944 7.40051L17.5446 4.8503C15.9343 3.34957 13.7803 2.42407 11.4055 2.42407C7.94241 2.42407 4.93915 4.37921 3.42896 7.24363Z" fill="#FF3D00"/>
<path d="M11.4055 20.4562C13.7343 20.4562 15.8504 19.565 17.4503 18.1157L14.6598 15.7543C13.7242 16.4659 12.5809 16.8507 11.4055 16.8498C9.0604 16.8498 7.06919 15.3545 6.31905 13.2677L3.37891 15.533C4.87107 18.4529 7.90138 20.4562 11.4055 20.4562Z" fill="#4CAF50"/>
<path d="M20.2461 9.67438H19.5199V9.63696H11.4054V13.2434H16.5008C16.1453 14.2426 15.5047 15.1157 14.6584 15.7548L14.6598 15.7539L17.4502 18.1152C17.2528 18.2947 20.4215 15.9482 20.4215 11.4402C20.4215 10.8357 20.3593 10.2455 20.2461 9.67438Z" fill="#1976D2"/>
</svg>
