<svg width="23" height="23" viewBox="0 0 23 23" fill="none" xmlns="http://www.w3.org/2000/svg">
<path d="M20.1468 1.12801H2.56541C2.1665 1.12395 1.78227 1.2783 1.49704 1.5572C1.2118 1.8361 1.04885 2.21676 1.04395 2.61566V20.268C1.04974 20.6664 1.21308 21.0462 1.49822 21.3243C1.78336 21.6025 2.16708 21.7564 2.56541 21.7523H20.1468C20.5457 21.7555 20.9297 21.6006 21.2148 21.3215C21.4999 21.0425 21.6629 20.6619 21.6683 20.263V2.61059C21.6611 2.21286 21.4973 1.83401 21.2124 1.55639C20.9275 1.27878 20.5446 1.12483 20.1468 1.12801Z" fill="#0076B2"/>
<path d="M4.09793 8.8588H7.15946V18.7094H4.09793V8.8588ZM5.62954 3.9563C5.98068 3.9563 6.32393 4.06045 6.61587 4.25557C6.90781 4.45068 7.13533 4.72801 7.26962 5.05245C7.40392 5.3769 7.43898 5.73389 7.37035 6.07826C7.30172 6.42263 7.1325 6.73891 6.88408 6.98709C6.63567 7.23526 6.31923 7.40419 5.97479 7.47249C5.63036 7.54078 5.2734 7.50539 4.94908 7.37078C4.62477 7.23618 4.34766 7.0084 4.15282 6.71627C3.95798 6.42415 3.85416 6.08079 3.85449 5.72965C3.85494 5.25917 4.04215 4.80812 4.37499 4.4756C4.70783 4.14308 5.15906 3.9563 5.62954 3.9563ZM9.07988 8.8588H12.0146V10.2112H12.0552C12.4643 9.43696 13.4617 8.62044 14.9511 8.62044C18.0515 8.61368 18.6262 10.6541 18.6262 13.2998V18.7094H15.5647V13.9168C15.5647 12.7757 15.5444 11.3067 13.9739 11.3067C12.4034 11.3067 12.1363 12.5509 12.1363 13.8424V18.7094H9.07988V8.8588Z" fill="white"/>
</svg>
