<svg width="23" height="23" viewBox="0 0 23 23" fill="none" xmlns="http://www.w3.org/2000/svg">
<g clip-path="url(#clip0_12_91)">
<path d="M22.2725 11.4402C22.2725 5.46486 17.4285 0.62085 11.4532 0.62085C5.47792 0.62085 0.633911 5.46486 0.633911 11.4402C0.633911 16.8404 4.5904 21.3164 9.76271 22.128V14.5676H7.01562V11.4402H9.76271V9.05653C9.76271 6.34494 11.378 4.84714 13.8494 4.84714C15.0331 4.84714 16.2712 5.05846 16.2712 5.05846V7.72102H14.907C13.5629 7.72102 13.1437 8.55504 13.1437 9.4107V11.4402H16.1444L15.6647 14.5676H13.1437V22.128C18.3161 21.3164 22.2725 16.8404 22.2725 11.4402Z" fill="#1877F2"/>
<path d="M15.6649 14.5676L16.1445 11.4402H13.1439V9.41072C13.1439 8.55498 13.563 7.72105 14.9071 7.72105H16.2713V5.05848C16.2713 5.05848 15.0332 4.84717 13.8494 4.84717C11.3781 4.84717 9.76284 6.34497 9.76284 9.05656V11.4402H7.01575V14.5676H9.76284V22.1281C10.3221 22.2157 10.8873 22.2597 11.4534 22.2595C12.0194 22.2597 12.5846 22.2157 13.1439 22.1281V14.5676H15.6649Z" fill="white"/>
</g>
<defs>
<clipPath id="clip0_12_91">
<rect width="21.6386" height="21.6386" fill="white" transform="translate(0.633911 0.62085)"/>
</clipPath>
</defs>
</svg>
