<svg width="14" height="12" viewBox="0 0 14 12" fill="none" xmlns="http://www.w3.org/2000/svg">
<path d="M1 2.66668C1 2.31305 1.14048 1.97392 1.39052 1.72387C1.64057 1.47382 1.97971 1.33334 2.33333 1.33334H11.6667C12.0203 1.33334 12.3594 1.47382 12.6095 1.72387C12.8595 1.97392 13 2.31305 13 2.66668V9.33334C13 9.68697 12.8595 10.0261 12.6095 10.2762C12.3594 10.5262 12.0203 10.6667 11.6667 10.6667H2.33333C1.97971 10.6667 1.64057 10.5262 1.39052 10.2762C1.14048 10.0261 1 9.68697 1 9.33334V2.66668Z" stroke="#0B0B0B" stroke-width="1.2" stroke-linecap="round" stroke-linejoin="round"/>
<path d="M1 2.66669L7 6.66669L13 2.66669" stroke="#0B0B0B" stroke-width="1.2" stroke-linecap="round" stroke-linejoin="round"/>
</svg>
