<svg width="12" height="12" viewBox="0 0 12 12" fill="none" xmlns="http://www.w3.org/2000/svg">
<path d="M10.6667 10.6667H1.33333V1.33333H10.6667M10.6667 0H1.33333C0.979711 0 0.640573 0.140476 0.390524 0.390524C0.140476 0.640573 0 0.979711 0 1.33333V10.6667C0 11.0203 0.140476 11.3594 0.390524 11.6095C0.640573 11.8595 0.979711 12 1.33333 12H10.6667C11.0203 12 11.3594 11.8595 11.6095 11.6095C11.8595 11.3594 12 11.0203 12 10.6667V1.33333C12 0.979711 11.8595 0.640573 11.6095 0.390524C11.3594 0.140476 11.0203 0 10.6667 0ZM9 8.83333C9 7.83333 7 7.33333 6 7.33333C5 7.33333 3 7.83333 3 8.83333V9.33333H9M6 6.16667C6.39782 6.16667 6.77936 6.00863 7.06066 5.72733C7.34196 5.44602 7.5 5.06449 7.5 4.66667C7.5 4.26884 7.34196 3.88731 7.06066 3.60601C6.77936 3.3247 6.39782 3.16667 6 3.16667C5.60218 3.16667 5.22064 3.3247 4.93934 3.60601C4.65804 3.88731 4.5 4.26884 4.5 4.66667C4.5 5.06449 4.65804 5.44602 4.93934 5.72733C5.22064 6.00863 5.60218 6.16667 6 6.16667Z" fill="#0B0B0B"/>
</svg>
