<svg width="25" height="27" viewBox="0 0 25 27" fill="none" xmlns="http://www.w3.org/2000/svg">
<path d="M12.5216 14.1087C15.5955 14.1087 18.0868 11.6563 18.0868 8.63045C18.0868 5.60457 15.5955 3.15219 12.5216 3.15219C9.44769 3.15219 6.95638 5.60457 6.95638 8.63045C6.95638 11.6563 9.44769 14.1087 12.5216 14.1087ZM16.4173 15.4783H15.6912C14.7259 15.9148 13.652 16.1631 12.5216 16.1631C11.3912 16.1631 10.3216 15.9148 9.35204 15.4783H8.62595C5.39986 15.4783 2.78247 18.0548 2.78247 21.2304V23.0109C2.78247 24.1451 3.71725 25.0652 4.86943 25.0652H20.1738C21.3259 25.0652 22.2607 24.1451 22.2607 23.0109V21.2304C22.2607 18.0548 19.6433 15.4783 16.4173 15.4783Z" fill="#292929"/>
</svg>
