<svg width="16" height="16" viewBox="0 0 16 16" fill="none" xmlns="http://www.w3.org/2000/svg">
<path d="M8.00004 1.33334C11.682 1.33334 14.6667 4.31801 14.6667 8.00001C14.6667 11.682 11.682 14.6667 8.00004 14.6667C4.31804 14.6667 1.33337 11.682 1.33337 8.00001C1.33337 4.31801 4.31804 1.33334 8.00004 1.33334ZM8.00004 2.66668C6.58555 2.66668 5.229 3.22858 4.2288 4.22877C3.22861 5.22897 2.66671 6.58552 2.66671 8.00001C2.66671 9.4145 3.22861 10.7711 4.2288 11.7712C5.229 12.7714 6.58555 13.3333 8.00004 13.3333C9.41453 13.3333 10.7711 12.7714 11.7713 11.7712C12.7715 10.7711 13.3334 9.4145 13.3334 8.00001C13.3334 6.58552 12.7715 5.22897 11.7713 4.22877C10.7711 3.22858 9.41453 2.66668 8.00004 2.66668ZM8.00004 10.6667C8.17685 10.6667 8.34642 10.7369 8.47144 10.8619C8.59647 10.987 8.66671 11.1565 8.66671 11.3333C8.66671 11.5102 8.59647 11.6797 8.47144 11.8047C8.34642 11.9298 8.17685 12 8.00004 12C7.82323 12 7.65366 11.9298 7.52864 11.8047C7.40361 11.6797 7.33337 11.5102 7.33337 11.3333C7.33337 11.1565 7.40361 10.987 7.52864 10.8619C7.65366 10.7369 7.82323 10.6667 8.00004 10.6667ZM8.00004 4.33334C8.56156 4.33336 9.10555 4.52891 9.53856 4.88641C9.97157 5.24391 10.2666 5.74103 10.3729 6.2924C10.4792 6.84376 10.3903 7.41493 10.1212 7.90782C9.85221 8.4007 9.41995 8.78452 8.89871 8.99334C8.8215 9.02173 8.75191 9.06759 8.69537 9.12734C8.66604 9.16068 8.66137 9.20334 8.66204 9.24734L8.66671 9.33334C8.66652 9.50326 8.60145 9.6667 8.48481 9.79026C8.36816 9.91381 8.20874 9.98817 8.03911 9.99812C7.86948 10.0081 7.70245 9.95289 7.57215 9.84383C7.44185 9.73477 7.35811 9.58007 7.33804 9.41134L7.33337 9.33334V9.16668C7.33337 8.39801 7.95337 7.93668 8.40271 7.75601C8.58558 7.68298 8.74511 7.56152 8.86416 7.40467C8.98322 7.24781 9.05729 7.06149 9.07844 6.86571C9.09958 6.66994 9.067 6.47209 8.98419 6.29344C8.90138 6.11478 8.77146 5.96205 8.6084 5.85166C8.44533 5.74127 8.25528 5.67738 8.05864 5.66686C7.86201 5.65633 7.66622 5.69957 7.4923 5.79192C7.31839 5.88428 7.17291 6.02227 7.0715 6.19106C6.97009 6.35986 6.91658 6.55309 6.91671 6.75001C6.91671 6.92682 6.84647 7.09639 6.72144 7.22141C6.59642 7.34644 6.42685 7.41668 6.25004 7.41668C6.07323 7.41668 5.90366 7.34644 5.77864 7.22141C5.65361 7.09639 5.58337 6.92682 5.58337 6.75001C5.58337 6.10907 5.83799 5.49438 6.2912 5.04117C6.74441 4.58796 7.3591 4.33334 8.00004 4.33334Z" fill="#0B0B0B"/>
</svg>
